<?xml version="1.0" encoding="UTF-8" standalone="no"?>
<!-- Created with Inkscape (http://www.inkscape.org/) -->

<svg
   xmlns:dc="http://purl.org/dc/elements/1.1/"
   xmlns:cc="http://creativecommons.org/ns#"
   xmlns:rdf="http://www.w3.org/1999/02/22-rdf-syntax-ns#"
   xmlns:svg="http://www.w3.org/2000/svg"
   xmlns="http://www.w3.org/2000/svg"
   xmlns:sodipodi="http://sodipodi.sourceforge.net/DTD/sodipodi-0.dtd"
   xmlns:inkscape="http://www.inkscape.org/namespaces/inkscape"
   width="210mm"
   height="297mm"
   viewBox="0 0 744.09448819 1052.3622047"
   id="svg2"
   version="1.1"
   inkscape:version="0.91 r13725"
   sodipodi:docname="smokingmirror-logo.svg"
   inkscape:export-filename="D:\gamedev\smokingmirror\assets\sm-logo.png"
   inkscape:export-xdpi="90"
   inkscape:export-ydpi="90">
  <defs
     id="defs4" />
  <sodipodi:namedview
     id="base"
     pagecolor="#ffffff"
     bordercolor="#666666"
     borderopacity="1.0"
     inkscape:pageopacity="0.0"
     inkscape:pageshadow="2"
     inkscape:zoom="1.4"
     inkscape:cx="275.84953"
     inkscape:cy="747.65855"
     inkscape:document-units="px"
     inkscape:current-layer="layer1"
     showgrid="false"
     inkscape:window-width="1920"
     inkscape:window-height="1017"
     inkscape:window-x="-8"
     inkscape:window-y="-8"
     inkscape:window-maximized="1" />
  <metadata
     id="metadata7">
    <rdf:RDF>
      <cc:Work
         rdf:about="">
        <dc:format>image/svg+xml</dc:format>
        <dc:type
           rdf:resource="http://purl.org/dc/dcmitype/StillImage" />
        <dc:title></dc:title>
      </cc:Work>
    </rdf:RDF>
  </metadata>
  <g
     inkscape:label="Layer 1"
     inkscape:groupmode="layer"
     id="layer1">
    <path
       style="fill:#f1dfb7;fill-opacity:1;fill-rule:evenodd;stroke:none;stroke-width:1px;stroke-linecap:butt;stroke-linejoin:miter;stroke-opacity:1"
       d="m 486.89353,255.35184 c 0,0 -109.81045,-43.82795 -231.32494,13.13199 -32.32488,15.15229 -30.37873,55.21813 -38.3858,75.76144 -26.18982,15.49255 -62.98479,29.10008 -93.48371,57.38435 -12.96174,12.02053 0.50508,19.95051 12.24811,40.4061 11.74302,20.45559 25.98461,19.89441 37.97853,39.96665 8.91702,14.92296 32.80277,33.07507 122.20127,9.33649 z"
       id="path4800"
       inkscape:connector-curvature="0"
       sodipodi:nodetypes="cscssscc" />
    <path
       style="fill:#81714f;fill-opacity:1;fill-rule:evenodd;stroke:#f1dfb7;stroke-width:20;stroke-linecap:butt;stroke-linejoin:miter;stroke-miterlimit:4;stroke-dasharray:none;stroke-opacity:1"
       d="M 502.39244,288.93197 350.15528,480.40049 594.46862,510.92914 Z"
       id="path4802"
       inkscape:connector-curvature="0"
       sodipodi:nodetypes="cccc" />
    <path
       style="fill:#f1dfb7;fill-opacity:1;fill-rule:evenodd;stroke:none;stroke-width:1px;stroke-linecap:butt;stroke-linejoin:miter;stroke-opacity:1"
       d="m 443.45696,249.29092 c 0,0 -93.22671,-74.07312 -139.40105,-39.39594 11.11168,50.50763 89.90357,97.9848 89.90357,97.9848 0,0 24.24367,9.09137 49.49748,-58.58886 z"
       id="path4804"
       inkscape:connector-curvature="0"
       sodipodi:nodetypes="cccc" />
    <path
       style="fill:#82e694;fill-rule:evenodd;stroke:none;stroke-width:0.75635421px;stroke-linecap:butt;stroke-linejoin:miter;stroke-opacity:1;fill-opacity:1"
       d="m 243.26772,336.45725 c 0,0 32.11294,-18.39605 45.25005,-17.59622 13.13712,0.79982 5.83872,34.39263 -15.32663,33.5928 -21.16534,-0.79983 -29.92342,-15.99658 -29.92342,-15.99658 z"
       id="path4806"
       inkscape:connector-curvature="0" />
    <path
       style="fill:#000000;fill-rule:evenodd;stroke:#000000;stroke-width:1px;stroke-linecap:butt;stroke-linejoin:miter;stroke-opacity:1;fill-opacity:1"
       d="m 264.40743,378.08538 c 25.95553,33.52536 31.69852,-23.51826 0,0 z"
       id="path4816"
       inkscape:connector-curvature="0" />
    <path
       style="fill:#000000;fill-rule:evenodd;stroke:#000000;stroke-width:1px;stroke-linecap:butt;stroke-linejoin:miter;stroke-opacity:1;fill-opacity:1"
       d="m 298.75262,393.23767 c 44.51238,15.93387 -28.77307,-43.1596 0,0 z"
       id="path4818"
       inkscape:connector-curvature="0" />
    <path
       style="fill:#000000;fill-rule:evenodd;stroke:#000000;stroke-width:1px;stroke-linecap:butt;stroke-linejoin:miter;stroke-opacity:1;fill-opacity:1"
       d="m 305.8568,341.24336 c 2.07844,28.78275 30.73347,-5.3924 0,0 z"
       id="path4820"
       inkscape:connector-curvature="0" />
    <path
       style="fill:#000000;fill-rule:evenodd;stroke:#000000;stroke-width:1px;stroke-linecap:butt;stroke-linejoin:miter;stroke-opacity:1;fill-opacity:1"
       d="m 257.84144,313.43562 c 37.99371,-16.64637 16.22166,-25.49118 0,0 z"
       id="path4822"
       inkscape:connector-curvature="0" />
    <path
       style="fill:#000000;fill-rule:evenodd;stroke:#000000;stroke-width:1px;stroke-linecap:butt;stroke-linejoin:miter;stroke-opacity:1;fill-opacity:1"
       d="m 290.92393,301.56632 c 5.97202,8.21143 12.53685,-1.9795 0,0 z"
       id="path4824"
       inkscape:connector-curvature="0" />
    <path
       style="fill:#000000;fill-rule:evenodd;stroke:#000000;stroke-width:1px;stroke-linecap:butt;stroke-linejoin:miter;stroke-opacity:1;fill-opacity:1"
       d="m 276.02418,281.61581 c -14.37372,20.47914 28.76162,3.5952 0,0 z"
       id="path4826"
       inkscape:connector-curvature="0" />
    <path
       style="fill:#000000;fill-rule:evenodd;stroke:#000000;stroke-width:1px;stroke-linecap:butt;stroke-linejoin:miter;stroke-opacity:1;fill-opacity:1"
       d="m 284.61048,270.2516 c 4.89294,11.93322 15.72502,-2.4829 0,0 z"
       id="path4830"
       inkscape:connector-curvature="0" />
    <path
       style="fill:#000000;fill-rule:evenodd;stroke:#000000;stroke-width:1px;stroke-linecap:butt;stroke-linejoin:miter;stroke-opacity:1;fill-opacity:1"
       d="m 304.05592,263.6856 c 2.40243,13.80563 18.18515,2.79772 0,0 z"
       id="path4832"
       inkscape:connector-curvature="0" />
    <path
       style="fill:#000000;fill-rule:evenodd;stroke:none;stroke-width:1px;stroke-linecap:butt;stroke-linejoin:miter;stroke-opacity:1;fill-opacity:1"
       d="m 294.96454,276.05997 c 4.91263,24.87778 27.33966,-8.20189 0,0 z"
       id="path4834"
       inkscape:connector-curvature="0" />
    <path
       style="fill:#000000;fill-rule:evenodd;stroke:#000000;stroke-width:1px;stroke-linecap:butt;stroke-linejoin:miter;stroke-opacity:1;fill-opacity:1"
       d="m 328.80465,272.39817 c -8.67243,12.63229 7.26667,7.01609 0,0 z"
       id="path4844"
       inkscape:connector-curvature="0" />
    <path
       style="fill:#000000;fill-rule:evenodd;stroke:#000000;stroke-width:1px;stroke-linecap:butt;stroke-linejoin:miter;stroke-opacity:1;fill-opacity:1"
       d="m 325.01658,258.76111 c -8.76373,9.03022 9.11047,9.43584 0,0 z"
       id="path4846"
       inkscape:connector-curvature="0" />
    <path
       style="fill:#000000;fill-rule:evenodd;stroke:#000000;stroke-width:1px;stroke-linecap:butt;stroke-linejoin:miter;stroke-opacity:1;fill-opacity:1"
       d="m 290.6714,287.04538 c 1.6509,9.48852 7.53177,3.4431 0,0 z"
       id="path4848"
       inkscape:connector-curvature="0" />
    <path
       style="fill:#000000;fill-rule:evenodd;stroke:#000000;stroke-width:1px;stroke-linecap:butt;stroke-linejoin:miter;stroke-opacity:1;fill-opacity:1"
       d="m 304.81353,363.69071 c 14.57303,26.06759 25.58236,-3.83736 0,0 z"
       id="path4852"
       inkscape:connector-curvature="0" />
    <path
       style="fill:#000000;fill-rule:evenodd;stroke:#000000;stroke-width:1px;stroke-linecap:butt;stroke-linejoin:miter;stroke-opacity:1;fill-opacity:1"
       d="m 308.6016,324.04222 c 25.66047,22.14878 22.99896,-15.81179 0,0 z"
       id="path4854"
       inkscape:connector-curvature="0" />
    <path
       style="fill:#000000;fill-rule:evenodd;stroke:#000000;stroke-width:1px;stroke-linecap:butt;stroke-linejoin:miter;stroke-opacity:1;fill-opacity:1"
       d="m 296.22723,313.68816 c 18.28152,-23.92372 22.2568,-0.55642 0,0 z"
       id="path4856"
       inkscape:connector-curvature="0" />
    <path
       style="fill:#000000;fill-opacity:1;fill-rule:evenodd;stroke:none;stroke-width:1px;stroke-linecap:butt;stroke-linejoin:miter;stroke-opacity:1"
       d="m 393.70696,278.58536 c 12.47486,-1.9984 33.33502,-19.44544 36.61802,-32.82996 1.6415,-6.69226 -51.3375,-37.96138 -85.42102,-42.0476 -19.78018,-2.37142 -20.26618,0 -38.5752,6.43972 1.51523,19.19289 48.02362,74.74218 87.3782,68.43784 z"
       id="path4864"
       inkscape:connector-curvature="0"
       sodipodi:nodetypes="ssscs" />
    <path
       style="fill:#81714f;fill-rule:evenodd;stroke:none;stroke-width:1px;stroke-linecap:butt;stroke-linejoin:miter;stroke-opacity:1;fill-opacity:1"
       d="m 306.07622,211.41021 c 0,0 75.25637,9.59645 92.6815,47.22463 17.42513,37.62818 -54.2957,13.8896 -54.2957,13.8896 0,0 -37.37565,-48.48732 -38.3858,-61.11423 z"
       id="path4862"
       inkscape:connector-curvature="0" />
    <path
       style="fill:#000000;fill-opacity:1;fill-rule:evenodd;stroke:none;stroke-width:1px;stroke-linecap:butt;stroke-linejoin:miter;stroke-opacity:1"
       d="m 182.25204,471.59012 c 20.99026,-16.73545 44.93075,-26.31473 81.80133,-18.2335 17.67767,8.08121 19.46337,24.48966 6.1686,31.99312 -17.76509,10.02646 -51.37679,13.9627 -67.16028,9.10624 -13.13198,-4.04061 -29.9127,-15.60803 -20.80965,-22.86586 z"
       id="path4870"
       inkscape:connector-curvature="0"
       sodipodi:nodetypes="scsss" />
    <path
       style="fill:#000000;fill-opacity:1;fill-rule:evenodd;stroke:none;stroke-width:1px;stroke-linecap:butt;stroke-linejoin:miter;stroke-opacity:1"
       d="m 154.71794,387.99257 c -7.57614,0.50507 -28.28427,12.12183 -29.7995,21.71828 -1.51522,9.59645 17.1726,33.84011 18.18275,33.33503 1.01015,-0.50507 17.67767,-20.20305 11.61675,-55.05331 z"
       id="path4872"
       inkscape:connector-curvature="0" />
    <path
       style="fill:#000000;fill-rule:evenodd;stroke:#000000;stroke-width:1px;stroke-linecap:butt;stroke-linejoin:miter;stroke-opacity:1;fill-opacity:1"
       d="m 230.53571,350.84435 c -17.80297,10.26719 1.3154,17.53855 0,0 z"
       id="path4884"
       inkscape:connector-curvature="0" />
    <path
       style="fill:#000000;fill-rule:evenodd;stroke:#000000;stroke-width:1px;stroke-linecap:butt;stroke-linejoin:miter;stroke-opacity:1;fill-opacity:1"
       d="m 235.89286,355.93363 c -7.30944,22.11459 6.94165,14.29163 0,0 z"
       id="path4886"
       inkscape:connector-curvature="0" />
    <path
       style="fill:#000000;fill-rule:evenodd;stroke:#000000;stroke-width:1px;stroke-linecap:butt;stroke-linejoin:miter;stroke-opacity:1;fill-opacity:1"
       d="m 247.94643,368.6122 c -17.8012,15.08021 7.862,18.86881 0,0 z"
       id="path4888"
       inkscape:connector-curvature="0" />
    <path
       style="fill:#000000;fill-rule:evenodd;stroke:#000000;stroke-width:1px;stroke-linecap:butt;stroke-linejoin:miter;stroke-opacity:1;fill-opacity:1"
       d="m 254.55357,371.91577 c -1.46357,9.10617 4.09555,5.07848 0,0 z"
       id="path4890"
       inkscape:connector-curvature="0" />
    <path
       style="fill:#000000;fill-rule:evenodd;stroke:#000000;stroke-width:1px;stroke-linecap:butt;stroke-linejoin:miter;stroke-opacity:1;fill-opacity:1"
       d="m 331.33004,348.79096 c 5.83763,37.34443 33.17821,0.85072 0,0 z"
       id="path4894"
       inkscape:connector-curvature="0" />
    <path
       style="fill:#000000;fill-rule:evenodd;stroke:#000000;stroke-width:1px;stroke-linecap:butt;stroke-linejoin:miter;stroke-opacity:1;fill-opacity:1"
       d="m 335.37065,329.8506 c 17.55327,9.64362 11.08303,-2.99542 0,0 z"
       id="path4896"
       inkscape:connector-curvature="0" />
    <path
       style="fill:#000000;fill-rule:evenodd;stroke:#000000;stroke-width:1px;stroke-linecap:butt;stroke-linejoin:miter;stroke-opacity:1;fill-opacity:1"
       d="m 328.29958,385.15645 c 10.64966,15.61881 18.28482,-3.36826 0,0 z"
       id="path4898"
       inkscape:connector-curvature="0" />
    <path
       style="fill:#000000;fill-rule:evenodd;stroke:#000000;stroke-width:1px;stroke-linecap:butt;stroke-linejoin:miter;stroke-opacity:1;fill-opacity:1"
       d="m 344.96709,282.12089 c -18.17453,12.69651 13.67677,3.41919 0,0 z"
       id="path4904"
       inkscape:connector-curvature="0" />
    <path
       style="fill:#000000;fill-rule:evenodd;stroke:#000000;stroke-width:1px;stroke-linecap:butt;stroke-linejoin:miter;stroke-opacity:1;fill-opacity:1"
       d="m 359.74058,287.803 c -7.96586,10.59075 1.31999,12.54914 0.3788,0"
       id="path4906"
       inkscape:connector-curvature="0" />
    <path
       style="fill:#000000;fill-rule:evenodd;stroke:#000000;stroke-width:1px;stroke-linecap:butt;stroke-linejoin:miter;stroke-opacity:1;fill-opacity:1"
       d="m 370.85225,290.20211 c -6.28318,18.08262 4.47593,11.33902 0,0 z"
       id="path4908"
       inkscape:connector-curvature="0" />
    <path
       style="fill:#000000;fill-rule:evenodd;stroke:#000000;stroke-width:1px;stroke-linecap:butt;stroke-linejoin:miter;stroke-opacity:1;fill-opacity:1"
       d="m 385.62573,291.84361 c -5.83863,19.91903 6.06189,10.30521 0,0 z"
       id="path4910"
       inkscape:connector-curvature="0" />
    <path
       style="fill:#000000;fill-rule:evenodd;stroke:#000000;stroke-width:1px;stroke-linecap:butt;stroke-linejoin:miter;stroke-opacity:1;fill-opacity:1"
       d="m 375.27167,297.02064 c -2.36198,8.8523 3.02212,6.22201 0,0 z"
       id="path4912"
       inkscape:connector-curvature="0" />
    <path
       style="fill:#000000;fill-rule:evenodd;stroke:#000000;stroke-width:1px;stroke-linecap:butt;stroke-linejoin:miter;stroke-opacity:1;fill-opacity:1"
       d="m 333.0978,302.0714 c 30.70578,-15.3722 0,28.92493 0,0 z"
       id="path4914"
       inkscape:connector-curvature="0" />
    <path
       style="fill:#000000;fill-rule:evenodd;stroke:#000000;stroke-width:1px;stroke-linecap:butt;stroke-linejoin:miter;stroke-opacity:1;fill-opacity:1"
       d="m 369.71583,309.90008 c 37.30547,8.9341 -12.27969,22.6205 0,0 z"
       id="path4916"
       inkscape:connector-curvature="0" />
    <path
       style="fill:#000000;fill-rule:evenodd;stroke:#000000;stroke-width:1px;stroke-linecap:butt;stroke-linejoin:miter;stroke-opacity:1;fill-opacity:1"
       d="m 353.42712,319.37026 c -0.42879,12.53143 6.5672,6.33266 0,0 z"
       id="path4918"
       inkscape:connector-curvature="0" />
    <path
       style="fill:#000000;fill-rule:evenodd;stroke:#000000;stroke-width:1px;stroke-linecap:butt;stroke-linejoin:miter;stroke-opacity:1;fill-opacity:1"
       d="m 275.1403,266.58979 c -2.57344,13.7432 8.07008,10.76011 0,0 z"
       id="path4920"
       inkscape:connector-curvature="0" />
    <path
       style="fill:#000000;fill-rule:evenodd;stroke:#000000;stroke-width:1px;stroke-linecap:butt;stroke-linejoin:miter;stroke-opacity:1;fill-opacity:1"
       d="m 288.90363,256.7408 c 5.94405,15.79892 13.69627,4.32514 0,0 z"
       id="path4922"
       inkscape:connector-curvature="0" />
    <path
       style="fill:#000000;fill-rule:evenodd;stroke:#000000;stroke-width:1px;stroke-linecap:butt;stroke-linejoin:miter;stroke-opacity:1;fill-opacity:1"
       d="m 309.23295,254.7205 c 9.67056,6.40853 8.26982,-2.4586 0,0 z"
       id="path4924"
       inkscape:connector-curvature="0" />
    <path
       style="fill:#000000;fill-rule:evenodd;stroke:#000000;stroke-width:1px;stroke-linecap:butt;stroke-linejoin:miter;stroke-opacity:1;fill-opacity:1"
       d="m 316.80909,293.73764 c 17.82384,-6.55629 13.96092,4.04132 0,0 z"
       id="path4926"
       inkscape:connector-curvature="0" />
    <path
       style="fill:#000000;fill-rule:evenodd;stroke:#000000;stroke-width:1px;stroke-linecap:butt;stroke-linejoin:miter;stroke-opacity:1;fill-opacity:1"
       d="m 399.01026,291.71734 c -6.1704,19.66763 7.81441,9.61774 0,0 z"
       id="path4930"
       inkscape:connector-curvature="0" />
    <path
       style="fill:#000000;fill-rule:evenodd;stroke:#000000;stroke-width:1px;stroke-linecap:butt;stroke-linejoin:miter;stroke-opacity:1;fill-opacity:1"
       d="m 411.38462,292.34868 c 2.33465,25.07291 8.54378,7.44136 0,0 z"
       id="path4932"
       inkscape:connector-curvature="0" />
    <path
       style="fill:#000000;fill-rule:evenodd;stroke:#000000;stroke-width:1px;stroke-linecap:butt;stroke-linejoin:miter;stroke-opacity:1;fill-opacity:1"
       d="m 425.65303,297.39944 c 7.66817,31.60653 19.14218,-7.9759 0,0 z"
       id="path4934"
       inkscape:connector-curvature="0" />
    <path
       style="fill:none;fill-rule:evenodd;stroke:#000000;stroke-width:1px;stroke-linecap:butt;stroke-linejoin:miter;stroke-opacity:1"
       d="m 184.12159,474.90421 c -17.29886,3.283 -38.60335,-28.68891 -38.60335,-28.68891 0,0 13.48696,16.31409 13.65919,18.65827"
       id="path4936"
       inkscape:connector-curvature="0"
       sodipodi:nodetypes="ccc" />
    <path
       style="fill:#000000;fill-rule:evenodd;stroke:#000000;stroke-width:1px;stroke-linecap:butt;stroke-linejoin:miter;stroke-opacity:1;fill-opacity:1"
       d="m 432.14286,270.21935 c 35.22144,11.99148 21.60084,24.09325 0,0 z"
       id="path4938"
       inkscape:connector-curvature="0" />
    <path
       style="fill:#000000;fill-rule:evenodd;stroke:#000000;stroke-width:1px;stroke-linecap:butt;stroke-linejoin:miter;stroke-opacity:1;fill-opacity:1"
       d="m 448.66284,258.93857 c 38.11411,-22.98307 11.06952,43.49137 0,0 z"
       id="path4940"
       inkscape:connector-curvature="0"
       inkscape:transform-center-x="-1.4665919"
       inkscape:transform-center-y="-0.71519055" />
    <path
       style="fill:#000000;fill-opacity:1;fill-rule:evenodd;stroke:#000000;stroke-width:1px;stroke-linecap:butt;stroke-linejoin:miter;stroke-opacity:1"
       d="m 160.53571,425.93364 c 10.04245,-5.62395 7.1745,-0.22973 0,0 z"
       id="path4942"
       inkscape:connector-curvature="0" />
    <path
       style="fill:#000000;fill-opacity:1;fill-rule:evenodd;stroke:#000000;stroke-width:1px;stroke-linecap:butt;stroke-linejoin:miter;stroke-opacity:1"
       d="m 170.53571,420.21935 c 9.65415,0.46709 5.83128,2.26772 0,0 z"
       id="path4944"
       inkscape:connector-curvature="0" />
    <path
       style="fill:#000000;fill-opacity:1;fill-rule:evenodd;stroke:#000000;stroke-width:1px;stroke-linecap:butt;stroke-linejoin:miter;stroke-opacity:1"
       d="m 182.32143,418.25506 c 7.14514,-5.75514 8.162,-1.9331 0,0 z"
       id="path4946"
       inkscape:connector-curvature="0" />
    <path
       style="fill:#000000;fill-opacity:1;fill-rule:evenodd;stroke:#000000;stroke-width:1px;stroke-linecap:butt;stroke-linejoin:miter;stroke-opacity:1"
       d="m 194.28571,411.46935 c 11.38055,-3.46064 8.98827,1.84375 0,0 z"
       id="path4948"
       inkscape:connector-curvature="0" />
    <path
       style="fill:#000000;fill-opacity:1;fill-rule:evenodd;stroke:#000000;stroke-width:1px;stroke-linecap:butt;stroke-linejoin:miter;stroke-opacity:1"
       d="m 208.125,406.38006 c 6.95307,-3.45912 8.27548,-1.18458 0,0 z"
       id="path4950"
       inkscape:connector-curvature="0"
       sodipodi:nodetypes="cc" />
    <path
       style="fill:#000000;fill-opacity:1;fill-rule:evenodd;stroke:#000000;stroke-width:1px;stroke-linecap:butt;stroke-linejoin:miter;stroke-opacity:1"
       d="m 221.42857,401.46935 c 11.35833,-10.62274 11.53957,0.59177 0,0 z"
       id="path4954"
       inkscape:connector-curvature="0" />
    <path
       style="fill:#000000;fill-opacity:1;fill-rule:evenodd;stroke:#000000;stroke-width:1px;stroke-linecap:butt;stroke-linejoin:miter;stroke-opacity:1"
       d="m 165.89286,437.98721 c 8.90185,-3.74274 4.78868,-0.11137 0,0 z"
       id="path4956"
       inkscape:connector-curvature="0" />
    <path
       style="fill:#000000;fill-opacity:1;fill-rule:evenodd;stroke:#000000;stroke-width:1px;stroke-linecap:butt;stroke-linejoin:miter;stroke-opacity:1"
       d="m 178.57143,434.59435 c 6.83334,-5.79126 5.93301,0.76064 0,0 z"
       id="path4958"
       inkscape:connector-curvature="0" />
    <path
       style="fill:#000000;fill-opacity:1;fill-rule:evenodd;stroke:#000000;stroke-width:1px;stroke-linecap:butt;stroke-linejoin:miter;stroke-opacity:1"
       d="m 192.5,428.96935 c 6.65937,-2.40211 4.13964,4.61729 0,0 z"
       id="path4960"
       inkscape:connector-curvature="0" />
    <path
       style="fill:#000000;fill-opacity:1;fill-rule:evenodd;stroke:#000000;stroke-width:1px;stroke-linecap:butt;stroke-linejoin:miter;stroke-opacity:1"
       d="m 205.89286,425.66578 c 12.25647,-3.76084 0.78291,-0.0392 0,0 z"
       id="path4962"
       inkscape:connector-curvature="0" />
    <path
       style="fill:#000000;fill-opacity:1;fill-rule:evenodd;stroke:#000000;stroke-width:1px;stroke-linecap:butt;stroke-linejoin:miter;stroke-opacity:1"
       d="m 221.42857,420.48721 c 6.49485,-0.29729 3.66193,3.53114 0,0 z"
       id="path4964"
       inkscape:connector-curvature="0" />
    <path
       style="fill:#000000;fill-opacity:1;fill-rule:evenodd;stroke:#000000;stroke-width:1px;stroke-linecap:butt;stroke-linejoin:miter;stroke-opacity:1"
       d="m 179.55357,446.46935 c 8.47846,-2.15154 5.01387,1.3551 0,0 z"
       id="path4966"
       inkscape:connector-curvature="0" />
    <path
       style="fill:#000000;fill-opacity:1;fill-rule:evenodd;stroke:#000000;stroke-width:1px;stroke-linecap:butt;stroke-linejoin:miter;stroke-opacity:1"
       d="m 192.94643,443.70149 c 9.69685,-4.011 6.82378,1.25702 0,0 z"
       id="path4968"
       inkscape:connector-curvature="0" />
    <path
       style="fill:#000000;fill-opacity:1;fill-rule:evenodd;stroke:#000000;stroke-width:1px;stroke-linecap:butt;stroke-linejoin:miter;stroke-opacity:1"
       d="m 207.76786,439.86221 c 5.02008,-1.44071 2.10094,0 0,0 z"
       id="path4970"
       inkscape:connector-curvature="0" />
    <path
       style="fill:#000000;fill-opacity:1;fill-rule:evenodd;stroke:#000000;stroke-width:0.79795063px;stroke-linecap:butt;stroke-linejoin:miter;stroke-opacity:1"
       d="m 362.64123,343.70573 c 25.24495,14.07676 14.47348,-23.0547 0,0 z"
       id="path4894-7"
       inkscape:connector-curvature="0" />
    <path
       style="fill:#000000;fill-opacity:1;fill-rule:evenodd;stroke:#000000;stroke-width:0.79795063px;stroke-linecap:butt;stroke-linejoin:miter;stroke-opacity:1"
       d="m 356.76223,357.77697 c 1.55199,28.86268 27.22128,-0.0485 0,0 z"
       id="path4894-7-1"
       inkscape:connector-curvature="0" />
    <path
       style="fill:#000000;fill-opacity:1;fill-rule:evenodd;stroke:#000000;stroke-width:0.53945744px;stroke-linecap:butt;stroke-linejoin:miter;stroke-opacity:1"
       d="m 260.78088,391.08696 c -2.98947,12.47642 8.0185,10.77409 0,0 z"
       id="path4888-5"
       inkscape:connector-curvature="0"
       inkscape:transform-center-x="1.0098258"
       inkscape:transform-center-y="0.68209192" />
    <path
       style="fill:#000000;fill-opacity:1;fill-rule:evenodd;stroke:#000000;stroke-width:0.75857931px;stroke-linecap:butt;stroke-linejoin:miter;stroke-opacity:1"
       d="m 276.43554,400.49169 c -12.76055,4.00327 4.6618,19.03103 0,0 z"
       id="path4888-5-9"
       inkscape:connector-curvature="0"
       inkscape:transform-center-x="0.50382262"
       inkscape:transform-center-y="0.1935518" />
  </g>
</svg>
